<?xml version="1.0" standalone="no"?>
<!DOCTYPE svg PUBLIC "-//W3C//DTD SVG 20010904//EN"
 "http://www.w3.org/TR/2001/REC-SVG-20010904/DTD/svg10.dtd">
<svg version="1.0" xmlns="http://www.w3.org/2000/svg"
 width="260.000000pt" height="260.000000pt" viewBox="0 0 260.000000 260.000000"
 preserveAspectRatio="xMidYMid meet">
<metadata>
Created by potrace 1.14, written by Peter Selinger 2001-2017
</metadata>
<g transform="translate(0.000000,260.000000) scale(0.100000,-0.100000)"
fill="#000000" stroke="none">
<path d="M1105 2470 c-3 -5 -15 -10 -26 -10 -13 0 -18 -4 -13 -12 5 -10 4 -10
-6 -1 -9 8 -20 8 -46 -3 -18 -8 -37 -14 -41 -13 -5 1 -10 0 -13 -1 -3 -1 -14
-3 -25 -5 -11 -2 -21 -8 -23 -14 -2 -5 -9 -8 -16 -5 -8 3 -20 -2 -29 -10 -8
-8 -17 -12 -21 -9 -3 3 -12 1 -19 -5 -8 -7 -17 -9 -20 -5 -4 3 -7 0 -7 -7 0
-7 -3 -11 -6 -7 -4 3 -13 -1 -21 -9 -8 -8 -18 -12 -22 -9 -5 2 -17 -5 -29 -15
-12 -11 -26 -20 -32 -20 -10 0 -22 -8 -55 -38 -8 -7 -15 -10 -15 -5 0 4 -5 0
-11 -10 -6 -9 -14 -15 -20 -12 -5 4 -9 -2 -9 -11 0 -10 -3 -14 -6 -11 -4 4
-14 -2 -23 -12 -9 -10 -32 -28 -51 -40 -19 -11 -31 -21 -26 -21 5 0 -10 -18
-32 -41 -23 -22 -40 -45 -36 -50 3 -5 -2 -9 -11 -9 -8 0 -19 -8 -22 -17 -4
-10 -9 -20 -12 -23 -16 -13 -61 -80 -61 -89 0 -6 -4 -11 -10 -11 -5 0 -10 -7
-10 -15 0 -8 -8 -23 -17 -32 -10 -10 -18 -25 -18 -33 1 -8 -4 -18 -9 -22 -5
-3 -11 -15 -12 -25 -2 -9 -7 -19 -13 -21 -5 -2 -8 -9 -5 -16 3 -8 -2 -20 -10
-29 -8 -8 -12 -17 -9 -21 3 -3 0 -13 -8 -23 -8 -10 -9 -14 -2 -10 8 5 8 -1 -2
-19 -8 -15 -12 -31 -9 -36 3 -4 1 -8 -4 -8 -5 0 -9 -6 -9 -12 0 -7 -4 -29 -8
-48 -4 -19 -8 -47 -9 -62 0 -16 -4 -28 -7 -28 -11 0 -8 -274 3 -287 7 -9 6
-13 -3 -13 -11 0 -11 -2 1 -10 13 -9 13 -10 0 -10 -9 0 -11 -3 -5 -8 6 -4 11
-12 12 -19 1 -6 5 -26 9 -45 8 -43 8 -45 24 -98 8 -25 14 -47 14 -50 1 -3 6
-12 11 -20 9 -15 15 -34 17 -57 1 -7 5 -13 10 -13 4 0 8 -9 8 -20 0 -11 4 -20
8 -20 4 0 14 -16 21 -35 7 -19 17 -35 22 -35 5 0 9 -7 9 -16 0 -8 6 -22 12
-29 19 -21 30 -36 62 -82 16 -24 33 -43 37 -43 5 0 9 -7 9 -16 0 -8 5 -12 10
-9 6 3 10 1 10 -5 0 -15 67 -80 74 -73 3 4 6 -1 6 -10 0 -9 7 -17 16 -17 8 0
12 -5 9 -10 -3 -6 1 -10 9 -10 8 0 28 -12 43 -26 61 -56 67 -60 59 -44 -4 8 0
6 9 -5 9 -11 19 -20 23 -20 4 0 21 -9 37 -21 17 -12 43 -24 58 -28 15 -4 25
-11 22 -15 -3 -5 5 -7 17 -4 13 3 20 2 16 -2 -10 -11 100 -48 114 -39 7 4 8 3
4 -4 -5 -8 2 -12 18 -12 14 0 26 -4 26 -8 0 -4 10 -9 23 -10 37 -4 51 -7 65
-15 7 -5 12 -3 12 4 0 8 4 8 15 -1 23 -19 292 -25 313 -8 13 11 14 11 8 0 -6
-10 -1 -11 20 -6 16 4 40 8 54 10 14 1 26 3 28 4 1 1 7 4 12 5 6 1 13 4 18 5
4 1 11 2 16 1 4 -1 13 2 20 7 6 5 19 8 29 7 9 -2 17 1 17 5 0 5 9 7 20 5 11
-2 20 0 20 6 0 5 7 9 15 9 8 0 15 4 15 9 0 4 11 7 25 6 14 -2 25 1 25 6 0 5 8
9 19 9 10 0 24 7 31 15 7 8 16 12 21 10 4 -3 12 2 17 11 5 9 11 15 13 13 9 -5
49 13 49 22 0 6 4 8 8 5 5 -3 14 4 22 14 8 10 17 17 22 14 4 -3 8 0 8 5 0 6 6
11 14 11 8 0 22 10 31 23 8 12 18 21 20 19 6 -3 25 12 70 55 18 18 36 29 40
25 5 -4 5 -2 2 4 -3 6 2 17 11 26 27 24 52 57 52 69 0 5 4 8 9 5 4 -3 13 6 19
19 7 14 16 25 22 25 6 0 9 4 6 9 -4 5 -3 11 2 13 11 5 69 99 77 125 3 13 11
23 16 23 5 0 9 7 9 15 0 17 20 56 34 66 4 4 3 10 -4 14 -8 5 -7 12 6 26 9 10
14 19 9 19 -4 0 -2 7 5 15 6 8 13 24 15 37 2 13 10 48 18 78 7 31 12 61 9 68
-2 7 1 12 6 12 10 0 8 293 -3 375 -4 28 -13 61 -22 74 -10 15 -11 21 -2 16 8
-6 10 -4 3 6 -5 8 -10 25 -12 39 -2 14 -7 26 -13 28 -5 2 -9 17 -9 32 0 16 -4
32 -10 35 -5 3 -15 15 -21 27 -8 15 -8 19 1 13 8 -5 7 0 -2 14 -7 12 -17 21
-23 21 -5 0 -3 5 5 10 13 8 13 10 -2 10 -11 0 -15 5 -12 15 4 8 1 15 -5 15 -6
0 -11 7 -11 15 0 8 -5 15 -11 15 -5 0 -7 5 -4 10 3 6 1 10 -4 10 -6 0 -11 6
-11 13 0 7 -9 23 -20 35 -12 12 -18 22 -14 22 4 0 -3 8 -14 19 -12 10 -22 22
-22 26 0 4 -9 16 -21 26 -11 10 -18 23 -14 29 3 6 2 9 -3 8 -6 -2 -30 17 -54
42 -56 56 -85 80 -99 80 -5 0 -7 5 -4 10 3 6 -1 10 -10 10 -9 0 -13 5 -10 10
3 6 1 10 -6 10 -7 0 -26 12 -43 28 -17 15 -24 18 -16 7 8 -11 -3 -5 -24 12
-22 18 -43 30 -48 27 -4 -3 -8 2 -8 10 0 10 -6 13 -15 10 -8 -4 -15 -1 -15 4
0 6 -9 9 -20 7 -11 -2 -18 0 -16 4 6 9 -44 34 -52 26 -3 -3 -17 5 -30 17 -14
13 -21 16 -17 8 8 -13 7 -13 -10 0 -10 8 -19 14 -19 12 -1 -4 -13 -1 -67 17
-19 6 -45 11 -57 11 -12 0 -22 4 -22 9 0 5 -11 8 -25 5 -16 -3 -25 0 -25 8 0
8 -3 9 -8 3 -9 -12 -42 -16 -42 -5 0 5 -59 9 -131 9 -87 1 -128 -2 -124 -9 4
-7 -2 -7 -19 0 -17 6 -26 6 -26 0 0 -6 -5 -10 -11 -10 -5 0 -7 5 -4 10 3 6 4
10 1 10 -3 0 -8 -4 -11 -10z"/>
</g>
</svg>
